<svg width="1200" height="630" viewBox="0 0 1200 630" fill="none" xmlns="http://www.w3.org/2000/svg">
  <rect width="1200" height="630" fill="#0B1120"/>
  <rect width="1200" height="630" fill="url(#bg)"/>
  <circle cx="971" cy="114" r="159" fill="#22D3EE" fill-opacity="0.16"/>
  <circle cx="188" cy="528" r="221" fill="#F97360" fill-opacity="0.14"/>
  <rect x="82" y="78" width="84" height="84" rx="22" fill="url(#logo)"/>
  <path d="M104 140V99H116L144 135V99H156V140H144L116 104V140H104Z" fill="#F8FAFC"/>
  <path d="M150.5 94C156.299 94 161 89.299 161 83.5C161 77.701 156.299 73 150.5 73C144.701 73 140 77.701 140 83.5C140 89.299 144.701 94 150.5 94Z" fill="#22D3EE"/>
  <text x="82" y="244" fill="#F8FAFC" font-family="Arial, sans-serif" font-size="72" font-weight="700" letter-spacing="8">NUCLEUS</text>
  <text x="82" y="306" fill="#CBD5E1" font-family="Arial, sans-serif" font-size="28">Media Intelligence Platform</text>
  <text x="82" y="398" fill="#E2E8F0" font-family="Arial, sans-serif" font-size="36" font-weight="600">
    Monitor narrative pressure, competitor movement, and connected media workflows.
  </text>
  <text x="82" y="450" fill="#94A3B8" font-family="Arial, sans-serif" font-size="28">
    Production-ready public site, legal pages, and TikTok OAuth callback support.
  </text>
  <rect x="82" y="500" width="278" height="54" rx="27" fill="#F97360"/>
  <text x="118" y="535" fill="#FFF7ED" font-family="Arial, sans-serif" font-size="24" font-weight="700">Secure Intelligence</text>
  <defs>
    <linearGradient id="bg" x1="47" y1="22" x2="1092" y2="676" gradientUnits="userSpaceOnUse">
      <stop stop-color="#101826"/>
      <stop offset="0.58" stop-color="#132033"/>
      <stop offset="1" stop-color="#3B1D2C"/>
    </linearGradient>
    <linearGradient id="logo" x1="90" y1="74" x2="156" y2="160" gradientUnits="userSpaceOnUse">
      <stop stop-color="#0F172A"/>
      <stop offset="1" stop-color="#F97360"/>
    </linearGradient>
  </defs>
</svg>
